<svg width="35" height="34" viewBox="0 0 35 34" fill="none" xmlns="http://www.w3.org/2000/svg">
<path d="M9.53359 20.1619C10.8256 20.1619 11.5396 19.4734 11.9476 18.7679L10.9106 18.2664C10.6726 18.7339 10.1626 19.0909 9.53359 19.0909C8.54759 19.0909 7.79959 18.3004 7.79959 17.2294C7.79959 16.1584 8.54759 15.3679 9.53359 15.3679C10.1626 15.3679 10.6726 15.7334 10.9106 16.1924L11.9476 15.6824C11.5481 14.9769 10.8256 14.2969 9.53359 14.2969C7.87609 14.2969 6.55859 15.4869 6.55859 17.2294C6.55859 18.9719 7.87609 20.1619 9.53359 20.1619Z" fill="#2E2E2E"/>
<path d="M16.27 20.0599V18.9974H13.873V14.3904H12.666V20.0599H16.27Z" fill="#2E2E2E"/>
<path d="M16.9077 17.7989C16.9077 19.1929 17.7152 20.1619 19.4492 20.1619C21.1662 20.1619 21.9737 19.2014 21.9737 17.7904V14.3904H20.7497V17.7564C20.7497 18.5469 20.3162 19.0909 19.4492 19.0909C18.5652 19.0909 18.1317 18.5469 18.1317 17.7564V14.3904H16.9077V17.7989Z" fill="#2E2E2E"/>
<path d="M26.1688 20.0599C27.2483 20.0599 27.8178 19.3799 27.8178 18.5299C27.8178 17.8159 27.3333 17.2294 26.7298 17.1359C27.2653 17.0254 27.7073 16.5494 27.7073 15.8354C27.7073 15.0789 27.1548 14.3904 26.0753 14.3904H23.0918V20.0599H26.1688ZM24.2988 15.4189H25.8118C26.2198 15.4189 26.4748 15.6909 26.4748 16.0394C26.4748 16.4049 26.2198 16.6684 25.8118 16.6684H24.2988V15.4189ZM24.2988 17.6969H25.8543C26.3303 17.6969 26.5853 18.0029 26.5853 18.3599C26.5853 18.7679 26.3133 19.0314 25.8543 19.0314H24.2988V17.6969Z" fill="#2E2E2E"/>
<circle cx="17.2188" cy="17" r="16.15" stroke="#2E2E2E" stroke-width="1.7"/>
</svg>
