<svg width="155" height="19" viewBox="0 0 155 19" fill="none" xmlns="http://www.w3.org/2000/svg">
<path d="M7.59079 17.9966H0V0.398438H4.4635V13.6752H7.59079V17.9966Z" fill="#404041"/>
<path d="M22.6872 0C17.5414 0 13.3906 4.09392 13.3906 9.15445C13.3906 14.215 17.5698 18.3089 22.7156 18.3089C27.8614 18.3089 32.0406 14.215 32.0406 9.15445C32.0406 4.09392 27.833 0 22.6872 0ZM22.6872 14.1013C20.0148 14.1013 17.8257 11.9122 17.8257 9.21131C17.8257 6.51046 20.0148 4.32135 22.6872 4.32135C25.3596 4.32135 27.5487 6.51046 27.5487 9.21131C27.5487 11.9122 25.388 14.1013 22.6872 14.1013Z" fill="#404041"/>
<path d="M46.1703 0C41.0244 0 36.8452 4.09392 36.8452 9.15445C36.8452 14.215 41.0244 18.3089 46.1703 18.3089C51.3161 18.3089 55.4954 14.215 55.4954 9.15445C55.4954 4.09392 51.3161 0 46.1703 0ZM46.1703 14.1013C43.4694 14.1013 41.3087 11.9122 41.3087 9.21131C41.3087 6.51046 43.4979 4.32135 46.1703 4.32135C48.8427 4.32135 51.0318 6.51046 51.0318 9.21131C51.0318 11.9122 48.8427 14.1013 46.1703 14.1013Z" fill="#404041"/>
<path d="M88.8721 18.0239H81.2529V0.425781H85.7448V13.7026H88.8721V18.0239Z" fill="#404041"/>
<path d="M103.968 0.0292969C98.8223 0.0292969 94.6431 4.12321 94.6431 9.18374C94.6431 14.2443 98.8223 18.3382 103.968 18.3382C109.114 18.3382 113.293 14.2443 113.293 9.18374C113.265 4.12321 109.085 0.0292969 103.968 0.0292969ZM103.968 14.1306C101.296 14.1306 99.1066 11.9415 99.1066 9.2406C99.1066 6.53976 101.296 4.35065 103.968 4.35065C106.64 4.35065 108.83 6.53976 108.83 9.2406C108.83 11.9415 106.64 14.1306 103.968 14.1306Z" fill="#404041"/>
<path d="M127.423 0.0292969C122.277 0.0292969 118.098 4.12321 118.098 9.18374C118.098 14.2443 122.277 18.3382 127.423 18.3382C132.569 18.3382 136.748 14.2443 136.748 9.18374C136.748 4.12321 132.569 0.0292969 127.423 0.0292969ZM127.423 14.1306C124.751 14.1306 122.562 11.9415 122.562 9.2406C122.562 6.53976 124.751 4.35065 127.423 4.35065C130.096 4.35065 132.285 6.53976 132.285 9.2406C132.285 11.9415 130.124 14.1306 127.423 14.1306Z" fill="#404041"/>
<path d="M155 2.33203H142.519V6.7671H155V2.33203Z" fill="#404041"/>
<path d="M155 11.8555H142.519V16.2906H155V11.8555Z" fill="#404041"/>
<path d="M76.3058 18.081L64.2799 0.369141H58.9351L70.8188 18.081H76.3058Z" fill="#404041"/>
<path d="M58.8501 18.081L70.8759 0.369141H76.1354L64.2802 18.081H58.8501Z" fill="#404041"/>
</svg>
