<svg width="35" height="34" viewBox="0 0 35 34" fill="none" xmlns="http://www.w3.org/2000/svg">
<path d="M13.9166 16.8857H3.08332M20.9999 9.74413H33.9165V16.8857H31.6248M20.9999 9.74413V16.8857H31.6248M20.9999 9.74413V33M20.9999 9.74413H17.4582M13.9166 9.74413H1V16.8857H3.08332M13.9166 9.74413V33M13.9166 9.74413H17.4582M31.6248 16.8857V33H3.08332V16.8857M17.4582 9.74413C16.9027 7.60776 15.0832 2.96879 12.2499 1.50386C9.41661 0.0389202 7.59718 2.11425 7.04163 3.33503C5.99997 4.79994 6.62496 8.13264 17.4582 9.74413ZM17.4582 9.74413C18.0138 7.05843 19.8749 1.57718 22.8749 1.1377C26.6248 0.588344 29.3332 3.88445 27.4582 5.53251C25.5832 7.18056 22.6665 8.64535 17.4582 9.74413Z" stroke="#333333" stroke-width="1.3"/>
</svg>
