<svg width="38" height="35" viewBox="0 0 38 35" fill="none" xmlns="http://www.w3.org/2000/svg">
<rect x="1" y="7.58984" width="36.3136" height="26.4099" stroke="#333333" stroke-width="1.3"/>
<path d="M14.2188 1L19.1706 5.95185L24.1225 1" stroke="#333333" stroke-width="1.3"/>
<path d="M11.8071 24.5V22.9375H8.28213V16.1625H6.50713V24.5H11.8071ZM15.6783 24.65C17.6783 24.65 18.8783 23.2 18.8783 21.475C18.8783 19.7625 17.6783 18.3125 15.6783 18.3125C13.6908 18.3125 12.4908 19.7625 12.4908 21.475C12.4908 23.2 13.6908 24.65 15.6783 24.65ZM15.6783 23.2375C14.6908 23.2375 14.1408 22.425 14.1408 21.475C14.1408 20.5375 14.6908 19.725 15.6783 19.725C16.6658 19.725 17.2283 20.5375 17.2283 21.475C17.2283 22.425 16.6658 23.2375 15.6783 23.2375ZM22.8561 24.65C24.8561 24.65 26.0561 23.2 26.0561 21.475C26.0561 19.7625 24.8561 18.3125 22.8561 18.3125C20.8686 18.3125 19.6686 19.7625 19.6686 21.475C19.6686 23.2 20.8686 24.65 22.8561 24.65ZM22.8561 23.2375C21.8686 23.2375 21.3186 22.425 21.3186 21.475C21.3186 20.5375 21.8686 19.725 22.8561 19.725C23.8436 19.725 24.4061 20.5375 24.4061 21.475C24.4061 22.425 23.8436 23.2375 22.8561 23.2375ZM32.319 24.5L30.1565 21.4L32.1815 18.4625H30.4065L29.169 20.325L27.919 18.4625H26.144L28.1565 21.4L26.019 24.5H27.7815L29.169 22.4625L30.544 24.5H32.319Z" fill="#333333"/>
</svg>
