<svg width="35" height="35" viewBox="0 0 35 35" fill="none" xmlns="http://www.w3.org/2000/svg">
<path d="M20.9981 6.95899C20.9981 10.3997 18.257 13.168 14.9014 13.168C11.5457 13.168 8.80469 10.3997 8.80469 6.95899C8.80469 3.51831 11.5457 0.75 14.9014 0.75C18.257 0.75 20.9981 3.51831 20.9981 6.95899Z" stroke="#2E2E2E" stroke-width="1.5"/>
<path fill-rule="evenodd" clip-rule="evenodd" d="M1.5 28.2999C1.5 20.7596 7.51077 14.668 14.8998 14.668C18.9464 14.668 22.5796 16.4949 25.0385 19.3862C25.5855 19.2331 26.1593 19.1441 26.7512 19.1277C24.0308 15.5072 19.7378 13.168 14.8998 13.168C6.65942 13.168 0 19.9543 0 28.2999C0 28.7141 0.335786 29.0499 0.75 29.0499C1.16421 29.0499 1.5 28.7141 1.5 28.2999Z" fill="#2E2E2E"/>
<path d="M34.6942 24.8205C34.6137 24.2565 34.4525 23.7328 34.2511 23.2091C33.3649 21.074 31.5924 19.4224 29.3767 18.7376C28.853 18.5764 28.3293 18.4556 27.7654 18.4153C27.5236 18.375 27.2819 18.375 27 18.375C26.8388 18.375 26.6374 18.375 26.4763 18.4153C26.7985 18.939 27.0805 19.4627 27.2819 20.0267C30.545 20.1878 33.1634 22.8868 33.1634 26.1901C33.1634 29.6143 30.3838 32.3939 26.9597 32.3939C23.5355 32.3939 20.7559 29.6143 20.7559 26.1901C20.7559 23.33 22.7298 20.9129 25.3886 20.1878C25.1469 19.6641 24.8649 19.221 24.5023 18.7778C22.327 19.503 20.5948 21.1143 19.7085 23.2494C19.5071 23.7731 19.346 24.2968 19.2654 24.8608C19.1848 25.3039 19.1445 25.747 19.1445 26.1901C19.1445 26.8347 19.2251 27.4792 19.3862 28.0835H20.7156C20.4739 28.6475 20.3128 29.2517 20.1919 29.856H20.0711C21.4004 32.3133 23.9786 34.0053 26.9597 34.0053C31.2701 34.0053 34.7748 30.5005 34.7748 26.1901C34.8151 25.7067 34.7345 25.2636 34.6942 24.8205Z" fill="#2E2E2E"/>
<path d="M24.6646 18.7376C24.6243 18.7376 24.584 18.7778 24.584 18.7778C24.9063 19.221 25.2285 19.7044 25.4702 20.1878C25.9536 20.0669 26.4773 19.9864 27.0413 19.9864C27.1219 19.9864 27.2427 19.9864 27.3233 19.9864C27.1219 19.4224 26.8399 18.8987 26.5176 18.375C26.4371 18.375 26.3565 18.375 26.2759 18.375C25.7119 18.4556 25.148 18.5764 24.6646 18.7376Z" fill="#2E2E2E"/>
<path d="M20.7552 28.0391H19.4258C19.5869 28.6836 19.7883 29.2476 20.1106 29.8116H20.2315C20.3523 29.2073 20.5135 28.603 20.7552 28.0391Z" fill="#2E2E2E"/>
<path d="M29.8981 25.252H27.8839V23.2378C27.8839 22.7544 27.4811 22.3516 26.9977 22.3516C26.5142 22.3516 26.1114 22.7544 26.1114 23.2378V25.252H24.0972C23.6138 25.252 23.2109 25.6549 23.2109 26.1383C23.2109 26.6217 23.6138 27.0245 24.0972 27.0245H26.1114V29.0387C26.1114 29.5222 26.5142 29.925 26.9977 29.925C27.4811 29.925 27.8839 29.5222 27.8839 29.0387V27.0245H29.8981C30.3815 27.0245 30.7844 26.6217 30.7844 26.1383C30.7844 25.6549 30.3815 25.252 29.8981 25.252Z" fill="#2E2E2E"/>
</svg>
