<svg width="30" height="30" viewBox="0 0 30 30" fill="none" xmlns="http://www.w3.org/2000/svg">
<circle cx="15" cy="15" r="15" fill="#9D9D9D"/>
<g clip-path="url(#clip0_1450_12456)">
<path d="M21.6901 20.8692C21.6901 20.8692 17.0482 21 15.5 21C13.9519 21 9.30988 20.8692 9.30988 20.8692C8.73225 20.8676 8.17873 20.6354 7.77023 20.2235C7.36172 19.8116 7.13142 19.2533 7.12963 18.6707C7.12963 18.6707 7 15.9187 7 15.0003C7 14.0819 7.12963 11.3268 7.12963 11.3268C7.13207 10.7446 7.36266 10.187 7.77109 9.77558C8.17953 9.36418 8.73267 9.13239 9.30988 9.13075C9.30988 9.13075 13.9519 9 15.5 9C17.0482 9 21.6901 9.13075 21.6901 9.13075C22.2679 9.1324 22.8215 9.36462 23.23 9.77668C23.6385 10.1887 23.8687 10.7471 23.8704 11.3299C23.8704 11.3299 24 14.0788 24 15.0034C24 15.928 23.8704 18.6738 23.8704 18.6738C23.8678 19.2559 23.6371 19.8134 23.2287 20.2246C22.8203 20.6359 22.2672 20.8676 21.6901 20.8692Z" fill="white"/>
<path fill-rule="evenodd" clip-rule="evenodd" d="M13.8723 17.6816V12.3188L18.1674 14.9999L13.8723 17.6816Z" fill="#9D9D9D"/>
</g>
<defs>
<clipPath id="clip0_1450_12456">
<rect width="17" height="12" fill="white" transform="translate(7 9)"/>
</clipPath>
</defs>
</svg>
