<svg width="22" height="23" viewBox="0 0 22 23" fill="none" xmlns="http://www.w3.org/2000/svg">
<path d="M9.01289 11.3602H2.53648M13.2475 6.70269H20.9693V11.3602H19.5993M13.2475 6.70269V11.3602H19.5993M13.2475 6.70269V21.8696M13.2475 6.70269H11.1302M9.01289 6.70269H1.29102V11.3602H2.53648M9.01289 6.70269V21.8696M9.01289 6.70269H11.1302M19.5993 11.3602V21.8696H2.53648V11.3602M11.1302 6.70269C10.7981 5.30941 9.71035 2.284 8.01652 1.3286C6.32269 0.373209 5.23498 1.72668 4.90286 2.52284C4.28013 3.47822 4.65377 5.65172 11.1302 6.70269ZM11.1302 6.70269C11.4623 4.95115 12.5749 1.37642 14.3684 1.0898C16.6102 0.731529 18.2293 2.88116 17.1084 3.95598C15.9875 5.0308 14.2438 5.9861 11.1302 6.70269Z" stroke="#FF2956"/>
</svg>
