<svg width="20" height="22" viewBox="0 0 20 22" fill="none" xmlns="http://www.w3.org/2000/svg">
<circle cx="3.63636" cy="10.9093" r="2.88636" stroke="#9D9D9D" stroke-width="1.5"/>
<path d="M19.2493 3.63636C19.2493 5.23046 17.957 6.52273 16.3629 6.52273C14.7688 6.52273 13.4766 5.23046 13.4766 3.63636C13.4766 2.04227 14.7688 0.75 16.3629 0.75C17.957 0.75 19.2493 2.04227 19.2493 3.63636Z" stroke="#9D9D9D" stroke-width="1.5"/>
<path d="M19.2493 18.1818C19.2493 19.7759 17.957 21.0681 16.3629 21.0681C14.7688 21.0681 13.4766 19.7759 13.4766 18.1818C13.4766 16.5877 14.7688 15.2954 16.3629 15.2954C17.957 15.2954 19.2493 16.5877 19.2493 18.1818Z" stroke="#9D9D9D" stroke-width="1.5"/>
<path d="M6.36328 9.09095L13.636 5.45459" stroke="#9D9D9D" stroke-width="1.5"/>
<path d="M6.36328 12.7271L13.636 16.3634" stroke="#9D9D9D" stroke-width="1.5"/>
</svg>
