<svg width="33" height="22" viewBox="0 0 33 22" fill="none" xmlns="http://www.w3.org/2000/svg">
<rect x="1" y="5.31445" width="31" height="16" stroke="#2E2E2E"/>
<path d="M14 1.31445L17 4.31445L20 1.31445" stroke="#2E2E2E"/>
<path d="M9.30713 17V15.4375H5.78213V8.6625H4.00713V17H9.30713ZM13.1783 17.15C15.1783 17.15 16.3783 15.7 16.3783 13.975C16.3783 12.2625 15.1783 10.8125 13.1783 10.8125C11.1908 10.8125 9.99082 12.2625 9.99082 13.975C9.99082 15.7 11.1908 17.15 13.1783 17.15ZM13.1783 15.7375C12.1908 15.7375 11.6408 14.925 11.6408 13.975C11.6408 13.0375 12.1908 12.225 13.1783 12.225C14.1658 12.225 14.7283 13.0375 14.7283 13.975C14.7283 14.925 14.1658 15.7375 13.1783 15.7375ZM20.3561 17.15C22.3561 17.15 23.5561 15.7 23.5561 13.975C23.5561 12.2625 22.3561 10.8125 20.3561 10.8125C18.3686 10.8125 17.1686 12.2625 17.1686 13.975C17.1686 15.7 18.3686 17.15 20.3561 17.15ZM20.3561 15.7375C19.3686 15.7375 18.8186 14.925 18.8186 13.975C18.8186 13.0375 19.3686 12.225 20.3561 12.225C21.3436 12.225 21.9061 13.0375 21.9061 13.975C21.9061 14.925 21.3436 15.7375 20.3561 15.7375ZM29.819 17L27.6565 13.9L29.6815 10.9625H27.9065L26.669 12.825L25.419 10.9625H23.644L25.6565 13.9L23.519 17H25.2815L26.669 14.9625L28.044 17H29.819Z" fill="#FF2956"/>
</svg>
