<svg width="158" height="19" viewBox="0 0 158 19" fill="none" xmlns="http://www.w3.org/2000/svg">
<path d="M7.73771 18.5777H0V0.410156H4.54989V14.1165H7.73771V18.5777Z" fill="#404041"/>
<path d="M23.1264 0C17.881 0 13.6499 4.22638 13.6499 9.45065C13.6499 14.6749 17.91 18.9013 23.1554 18.9013C28.4008 18.9013 32.6609 14.6749 32.6609 9.45065C32.6609 4.22638 28.3718 0 23.1264 0ZM23.1264 14.5575C20.4023 14.5575 18.1708 12.2976 18.1708 9.50935C18.1708 6.72112 20.4023 4.46118 23.1264 4.46118C25.8506 4.46118 28.082 6.72112 28.082 9.50935C28.082 12.2976 25.8795 14.5575 23.1264 14.5575Z" fill="#404041"/>
<path d="M47.0636 0C41.8182 0 37.5581 4.22638 37.5581 9.45065C37.5581 14.6749 41.8182 18.9013 47.0636 18.9013C52.309 18.9013 56.5691 14.6749 56.5691 9.45065C56.5691 4.22638 52.309 0 47.0636 0ZM47.0636 14.5575C44.3105 14.5575 42.108 12.2976 42.108 9.50935C42.108 6.72112 44.3395 4.46118 47.0636 4.46118C49.7877 4.46118 52.0192 6.72112 52.0192 9.50935C52.0192 12.2976 49.7877 14.5575 47.0636 14.5575Z" fill="#404041"/>
<path d="M90.5919 18.607H82.8252V0.439453H87.4041V14.1458H90.5919V18.607Z" fill="#404041"/>
<path d="M105.981 0.0292969C100.735 0.0292969 96.4751 4.25568 96.4751 9.47995C96.4751 14.7042 100.735 18.9306 105.981 18.9306C111.226 18.9306 115.486 14.7042 115.486 9.47995C115.457 4.25568 111.197 0.0292969 105.981 0.0292969ZM105.981 14.5868C103.256 14.5868 101.025 12.3269 101.025 9.53865C101.025 6.75042 103.256 4.49048 105.981 4.49048C108.705 4.49048 110.936 6.75042 110.936 9.53865C110.936 12.3269 108.705 14.5868 105.981 14.5868Z" fill="#404041"/>
<path d="M129.889 0.0292969C124.644 0.0292969 120.384 4.25568 120.384 9.47995C120.384 14.7042 124.644 18.9306 129.889 18.9306C135.135 18.9306 139.395 14.7042 139.395 9.47995C139.395 4.25568 135.135 0.0292969 129.889 0.0292969ZM129.889 14.5868C127.165 14.5868 124.934 12.3269 124.934 9.53865C124.934 6.75042 127.165 4.49048 129.889 4.49048C132.613 4.49048 134.845 6.75042 134.845 9.53865C134.845 12.3269 132.642 14.5868 129.889 14.5868Z" fill="#404041"/>
<path d="M158 2.40625H145.278V6.98483H158V2.40625Z" fill="#92E8DE"/>
<path d="M158 12.2383H145.278V16.8169H158V12.2383Z" fill="#92E8DE"/>
<path d="M77.783 18.6658L65.5244 0.380859H60.0762L72.1899 18.6658H77.783Z" fill="#404041"/>
<path d="M59.9888 18.6658L72.2474 0.380859H77.6087L65.524 18.6658H59.9888Z" fill="#404041"/>
</svg>
